<svg xmlns="http://www.w3.org/2000/svg" version="1.1" xmlns:xlink="http://www.w3.org/1999/xlink" xmlns:svgjs="http://svgjs.com/svgjs" width="512" height="512" x="0" y="0" viewBox="0 0 512 512" style="enable-background:new 0 0 512 512" xml:space="preserve" class=""><g><path fill="#eaf2ff" d="M468.857 365.154c-2.228-6.895-4.332-13.408-6.115-19.6-16.345-54.214-23.658-54.379-43.188-54.813-2.528-.072-15.1-.063-20.461-.056h-2.436c-10.47 0-13.307 2.72-20.887 9.989-.52.5-1.065 1.019-1.615 1.542v11.764a23.22 23.22 0 0 1-23.194 23.194h-32.656a23.234 23.234 0 0 1-23.222-23.194v-11.761c-.56-.533-1.113-1.062-1.641-1.569-7.555-7.249-10.383-9.962-20.861-9.962h-2.419c-5.37-.006-17.944-.015-20.4.055-13.866.308-21.587.486-30.7 19.762a8.012 8.012 0 0 1-.406.864c-3.651 7.91-7.543 18.9-12.152 34.188-1.783 6.19-3.888 12.7-6.115 19.6-15.408 47.687-24.639 85.22 7.507 98.507 14.8 6.115 32.255-.039 44.471-15.674l23.245-29.76a26.8 26.8 0 1 1 48.839-16.034h20.381a26.79 26.79 0 1 1 48.81 16.034l23.246 29.761c12.215 15.633 29.671 21.787 44.472 15.672 32.14-13.289 22.905-50.822 7.497-98.509z" data-original="#eaf2ff"></path><path fill="#f4dbb8" d="M349.383 155.046c2.848-1.254 8.772-3.863 8.772-5.221v-41.1H86.488v41.1c0 1.358 5.925 3.967 8.772 5.221 7.4 3.258 18.584 8.183 18.584 20.235s-11.188 16.97-18.59 20.223c-2.846 1.249-8.766 3.85-8.766 5.2v138.728h105.146c2.848-9.37 5.47-17.25 7.987-23.911h-58.2a8 8 0 0 1 0-16h65.238a58.915 58.915 0 0 1 8.152-12.061 37.422 37.422 0 0 1 6.011-5.417h-79.4a8 8 0 0 1 0-16h161.803a8 8 0 0 1 0 16H296.6a94.683 94.683 0 0 1 7.919 7.063q.839.8 1.73 1.655h51.9v-90.053c0-1.354-5.92-3.955-8.765-5.2-7.4-3.253-18.59-8.168-18.59-20.223s11.189-16.985 18.589-20.239z" data-original="#f4dbb8"></path><path fill-rule="evenodd" d="M294.89 177.888a7.994 7.994 0 1 1 7.994 7.994 8.009 8.009 0 0 1-7.994-7.994zm-153.131 7.994a8.008 8.008 0 1 0-7.994-7.994 8 8 0 0 0 7.994 7.994zm325.7 292.567c-21.625 8.93-46.429.842-63.192-20.61l-23.235-29.747a26.733 26.733 0 0 1-31.5-9.9h-29.809a26.767 26.767 0 0 1-31.522 9.9l-23.233 29.746c-12.233 15.655-28.751 24.2-45.187 24.2a46.985 46.985 0 0 1-18-3.584c-21.6-8.927-32.2-26.717-31.508-52.875.064-2.428.232-4.893.473-7.382H58.447a8 8 0 0 1-7.308-4.744 86.362 86.362 0 0 1-3.167-8.21h-8.546a26.426 26.426 0 1 1 0-52.852h8.54a85.8 85.8 0 0 1 3.177-8.218 8 8 0 0 1 7.3-4.737h12.045V200.708c0-11.8 10.594-16.456 18.33-19.854 3.376-1.482 9.025-3.965 9.025-5.573s-5.654-4.1-9.032-5.591c-7.733-3.406-18.323-8.07-18.323-19.865v-41.1H58.447a8 8 0 0 1-7.308-4.745 86.466 86.466 0 0 1-3.167-8.21h-8.546a26.426 26.426 0 0 1 0-52.852h8.546a86.38 86.38 0 0 1 3.167-8.211 8 8 0 0 1 7.308-4.744H386.2a8 8 0 0 1 7.308 4.745 86.362 86.362 0 0 1 3.167 8.21h8.546a26.426 26.426 0 0 1 0 52.852h-8.546a86.457 86.457 0 0 1-3.166 8.21 8 8 0 0 1-7.309 4.745h-12.045v41.1c0 11.8-10.59 16.459-18.323 19.865-3.378 1.487-9.032 3.976-9.032 5.591s5.65 4.091 9.025 5.573c7.736 3.4 18.33 8.053 18.33 19.854v80.233c5.465-3.795 12.005-6.253 22.5-6.253h2.423c9.435-.009 18.49-.006 20.873.06 12.371.275 24.352 1.455 34.481 12.714 8.127 9.034 14.755 24.04 23.642 53.524l.028.1c1.715 5.957 3.785 12.367 5.978 19.154 6.719 20.792 14.334 44.36 14.886 65.34.691 26.153-9.909 43.943-31.503 52.869zM400.244 58.921a84.84 84.84 0 0 1 0 20.851h4.973a10.426 10.426 0 1 0 0-20.851zM44.4 79.772a84.971 84.971 0 0 1 0-20.851h-4.974a10.426 10.426 0 1 0 0 20.851zm0 309.466a85.1 85.1 0 0 1 0-20.851h-4.974a10.426 10.426 0 1 0 0 20.851zm266.684-75.255a7.216 7.216 0 0 0 7.222 7.194h32.656a7.2 7.2 0 0 0 7.194-7.194v-7.222h-47.073zM63.844 92.728H380.8a68.936 68.936 0 0 0 0-46.761H63.843a68.928 68.928 0 0 0 0 46.761zm22.644 246.7h105.146c2.848-9.371 5.47-17.25 7.987-23.911h-58.2a8 8 0 0 1 0-16h65.238a58.943 58.943 0 0 1 8.152-12.061 37.422 37.422 0 0 1 6.011-5.417h-79.4a8 8 0 0 1 0-16h161.8a8 8 0 1 1 0 16H296.6a94.842 94.842 0 0 1 7.919 7.063q.839.8 1.73 1.655h51.9v-90.049c0-1.354-5.92-3.955-8.765-5.2-7.4-3.253-18.59-8.167-18.59-20.223s11.183-16.976 18.583-20.235c2.848-1.254 8.772-3.863 8.772-5.221v-41.1H86.488v41.1c0 1.358 5.925 3.967 8.772 5.221 7.4 3.259 18.583 8.183 18.583 20.235s-11.187 16.97-18.589 20.223c-2.846 1.249-8.766 3.85-8.766 5.2zm98.667 20.8 1.549-4.8H63.839a68.957 68.957 0 0 0 .005 46.76h109.4c2.947-14.181 7.608-28.635 11.911-41.953zm123.307 42.758a10.808 10.808 0 1 0-10.822 10.822 10.82 10.82 0 0 0 10.822-10.815zm63.138 10.829a10.808 10.808 0 1 0-10.8-10.822 10.82 10.82 0 0 0 10.8 10.822zm97.259-48.661c-2.228-6.895-4.332-13.408-6.115-19.6-16.345-54.214-23.657-54.379-43.188-54.813-2.528-.072-15.1-.063-20.461-.056h-2.436c-10.47 0-13.307 2.72-20.887 9.988-.52.5-1.065 1.02-1.615 1.543v11.764a23.219 23.219 0 0 1-23.194 23.194h-32.658a23.234 23.234 0 0 1-23.222-23.194v-11.761a652.99 652.99 0 0 1-1.641-1.569c-7.555-7.249-10.383-9.962-20.861-9.962h-2.419c-5.37-.006-17.944-.015-20.4.055-13.866.308-21.587.486-30.7 19.762a8.2 8.2 0 0 1-.405.864c-3.652 7.91-7.544 18.9-12.153 34.188-1.783 6.19-3.887 12.7-6.115 19.6-15.408 47.687-24.639 85.22 7.507 98.507 14.8 6.115 32.255-.039 44.471-15.674l23.245-29.76a26.8 26.8 0 1 1 48.839-16.034h20.381a26.79 26.79 0 1 1 48.81 16.034l23.246 29.761c12.215 15.633 29.671 21.787 44.472 15.672 32.14-13.289 22.905-50.822 7.497-98.509zm-194.917-23.141h-9.32v-9.349a8 8 0 1 0-16 0v9.349h-9.347a8 8 0 1 0 0 16h9.347v9.32a8 8 0 0 0 16 0v-9.32h9.32a8 8 0 0 0 0-16zm-99.916-185.9a8 8 0 0 1 11.12-9.208l18.7 8.654 11.648-19.084a8 8 0 0 1 13.658 0l11.648 19.081 18.7-8.654a8 8 0 0 1 11.12 9.208l-11.906 47.425a8 8 0 0 1-7.76 6.052h-57.263a8 8 0 0 1-7.759-6.052zm19.6 12.346 6.309 25.131h44.781l6.309-25.131-9.974 4.617a8 8 0 0 1-10.19-3.092L222.322 156l-8.535 13.985a8 8 0 0 1-10.19 3.092zm-52.2 80.136h161.8a8 8 0 1 0 0-16h-161.8a8 8 0 0 0 0 16zm271.218 110.743a8.009 8.009 0 1 0 7.994 8 8.009 8.009 0 0 0-7.994-8zM395.3 341.99a8.008 8.008 0 1 0 7.994 8.022 8.009 8.009 0 0 0-7.994-8.022zm17.348-17.32a7.994 7.994 0 1 0 7.994 7.994 8.009 8.009 0 0 0-7.998-7.994zm17.321 17.32a8.008 8.008 0 1 0 7.993 8.022 8.008 8.008 0 0 0-7.997-8.022z" fill="#000000" data-original="#000000" class=""></path><path fill="#ffa91a" d="m244.712 193.587 6.309-25.131-9.974 4.617a8 8 0 0 1-10.19-3.093L222.322 156l-8.535 13.984a8 8 0 0 1-10.19 3.093l-9.974-4.617 6.308 25.131z" data-original="#ffa91a" class=""></path><g fill="#e63950"><path d="M39.426 58.921a10.426 10.426 0 1 0 0 20.851H44.4a84.971 84.971 0 0 1 0-20.851zM44.4 368.387h-4.974a10.426 10.426 0 1 0 0 20.851H44.4a85.1 85.1 0 0 1 0-20.851zM405.217 79.772a10.426 10.426 0 1 0 0-20.851h-4.973a84.84 84.84 0 0 1 0 20.851z" fill="#e63950" data-original="#e63950" class=""></path></g><path fill="#ffa91a" d="M384.886 69.347a68.524 68.524 0 0 0-4.086-23.38H63.843a68.928 68.928 0 0 0 0 46.761H380.8a68.538 68.538 0 0 0 4.086-23.381z" data-original="#ffa91a" class=""></path><path fill="#9bc4f9" d="M371.6 392.2a10.808 10.808 0 1 0 10.794 10.794A10.806 10.806 0 0 0 371.6 392.2zM297.64 392.2a10.808 10.808 0 1 0 10.822 10.794A10.806 10.806 0 0 0 297.64 392.2z" data-original="#9bc4f9"></path><path fill="#ffa91a" d="M63.839 355.433a68.957 68.957 0 0 0 .005 46.76h109.4c2.948-14.186 7.609-28.641 11.913-41.958l1.548-4.8z" data-original="#ffa91a" class=""></path><path fill="#9bc4f9" d="M318.305 321.177h32.656a7.2 7.2 0 0 0 7.194-7.194v-7.222h-47.072v7.222a7.216 7.216 0 0 0 7.222 7.194z" data-original="#9bc4f9"></path></g></svg>
